<svg xmlns="http://www.w3.org/2000/svg" viewBox="0 0 320 40" width="320" height="40">
    <defs>
      <style>
        .cls-1 { fill: none; stroke: #ffffff; stroke-linecap: round; stroke-linejoin: round; stroke-width: 2.5px; }
      </style>
    </defs>
    <g transform="translate(10, 5)">
      <circle cx="10" cy="5" r="4" class="cls-1"/>
      <line x1="10" y1="9" x2="10" y2="22" class="cls-1"/>
      <line x1="10" y1="12" x2="6" y2="18" class="cls-1"/>
      <line x1="10" y1="12" x2="14" y2="18" class="cls-1"/>
      <line x1="10" y1="22" x2="7" y2="30" class="cls-1"/>
      <line x1="10" y1="22" x2="13" y2="30" class="cls-1"/>
    </g>
    
    <g transform="translate(50, 5)">
      <circle cx="10" cy="5" r="4" class="cls-1"/>
      <line x1="10" y1="9" x2="10" y2="22" class="cls-1"/>
      <line x1="10" y1="12" x2="7" y2="18" class="cls-1"/>
      <line x1="10" y1="12" x2="13" y2="18" class="cls-1"/>
      <line x1="10" y1="22" x2="8" y2="30" class="cls-1"/>
      <line x1="10" y1="22" x2="11" y2="30" class="cls-1"/>
    </g>
    
    <g transform="translate(90, 5)">
      <circle cx="10" cy="5" r="4" class="cls-1"/>
      <line x1="10" y1="9" x2="10" y2="22" class="cls-1"/>
      <line x1="10" y1="12" x2="8" y2="18" class="cls-1"/>
      <line x1="10" y1="12" x2="12" y2="18" class="cls-1"/>
      <line x1="10" y1="22" x2="5" y2="30" class="cls-1"/>
      <line x1="10" y1="22" x2="15" y2="30" class="cls-1"/>
    </g>
    
    <g transform="translate(130, 5)">
      <circle cx="10" cy="5" r="4" class="cls-1"/>
      <line x1="10" y1="9" x2="10" y2="22" class="cls-1"/>
      <line x1="10" y1="12" x2="9" y2="18" class="cls-1"/>
      <line x1="10" y1="12" x2="11" y2="18" class="cls-1"/>
      <line x1="10" y1="22" x2="7" y2="30" class="cls-1"/>
      <line x1="10" y1="22" x2="12" y2="30" class="cls-1"/>
    </g>
    
    <g transform="translate(170, 5)">
      <circle cx="10" cy="5" r="4" class="cls-1"/>
      <line x1="10" y1="9" x2="10" y2="22" class="cls-1"/>
      <line x1="10" y1="12" x2="6" y2="18" class="cls-1"/>
      <line x1="10" y1="12" x2="14" y2="18" class="cls-1"/>
      <line x1="10" y1="22" x2="9" y2="30" class="cls-1"/>
      <line x1="10" y1="22" x2="11" y2="30" class="cls-1"/>
    </g>
    
    <g transform="translate(210, 5)">
      <circle cx="10" cy="5" r="4" class="cls-1"/>
      <line x1="10" y1="9" x2="10" y2="22" class="cls-1"/>
      <line x1="10" y1="12" x2="7" y2="18" class="cls-1"/>
      <line x1="10" y1="12" x2="13" y2="18" class="cls-1"/>
      <line x1="10" y1="22" x2="11" y2="30" class="cls-1"/>
      <line x1="10" y1="22" x2="13" y2="30" class="cls-1"/>
    </g>
    
    <g transform="translate(250, 5)">
      <circle cx="10" cy="5" r="4" class="cls-1"/>
      <line x1="10" y1="9" x2="10" y2="22" class="cls-1"/>
      <line x1="10" y1="12" x2="8" y2="18" class="cls-1"/>
      <line x1="10" y1="12" x2="12" y2="18" class="cls-1"/>
      <line x1="10" y1="22" x2="15" y2="30" class="cls-1"/>
      <line x1="10" y1="22" x2="5" y2="30" class="cls-1"/>
    </g>
    
    <g transform="translate(290, 5)">
      <circle cx="10" cy="5" r="4" class="cls-1"/>
      <line x1="10" y1="9" x2="10" y2="22" class="cls-1"/>
      <line x1="10" y1="12" x2="9" y2="18" class="cls-1"/>
      <line x1="10" y1="12" x2="11" y2="18" class="cls-1"/>
      <line x1="10" y1="22" x2="13" y2="30" class="cls-1"/>
      <line x1="10" y1="22" x2="11" y2="30" class="cls-1"/>
    </g>
  </svg>